<svg width="750" height="155" viewBox="0 0 750 155" fill="none" xmlns="http://www.w3.org/2000/svg">
<path d="M25.4598 8.17013C26.7898 11.9701 26.5998 15.9601 26.2198 19.9501C25.6498 23.9401 24.6998 27.7401 24.1298 31.7301C22.9898 39.5201 23.5598 47.5001 25.4598 55.1001C26.2198 59.2801 27.3598 63.2701 27.7398 67.4501C28.1198 71.6301 27.9298 76.0001 26.5998 79.8001C24.6998 85.3101 21.0898 90.0601 18.6198 95.1901C17.2898 97.6601 16.3398 100.51 15.9598 103.17C15.3898 106.02 15.5798 109.06 16.1498 111.72C16.3398 114 16.9098 116.28 17.2898 118.56C17.4798 120.84 17.6698 123.12 17.0998 125.4C16.5298 127.68 15.3898 129.77 14.0598 131.48C12.7298 133.38 10.8298 134.9 9.68984 136.61C8.92984 137.56 8.54984 138.51 8.35984 139.65C8.16984 140.6 8.35984 141.74 9.11984 142.5C9.68984 143.45 10.4498 144.02 11.5898 144.21C12.5398 144.4 13.6798 144.21 14.6298 143.64C15.3898 143.26 16.1498 142.5 16.7198 141.74C17.4798 140.98 17.8598 140.03 18.2398 139.27C19.1898 137.37 19.5698 135.47 20.5198 133.57C21.2798 131.67 22.4198 129.96 23.9398 128.63C25.4598 127.3 27.3598 126.54 29.4498 126.35C30.7798 126.35 32.1098 126.54 33.4398 127.11C34.7698 127.68 36.0998 128.44 37.2398 129.2C39.3298 131.1 41.2298 133.38 42.7498 135.66C44.2698 138.13 45.5998 140.6 46.3598 143.26C46.5498 144.4 46.7398 145.54 46.5498 146.68C46.5498 147.82 46.1698 148.96 45.5998 149.91C45.2198 150.86 44.4598 151.81 43.3198 152.38C42.3698 152.95 41.2298 153.33 40.2798 153.14C39.1398 153.14 37.9998 152.95 37.0498 152.38C36.0998 152 35.1498 151.24 34.1998 150.67C32.6798 149.15 30.9698 147.63 29.0698 146.68C27.3598 146.11 25.6498 145.73 23.7498 146.11C22.0398 146.3 20.5198 147.06 18.9998 148.01C17.4798 148.96 16.1498 150.1 14.8198 151.05C13.2998 152 11.7798 152.95 10.0698 153.14C7.78984 153.71 5.50984 153.14 3.79984 152C2.08984 150.67 0.949844 148.77 0.379844 146.49C-0.000156168 144.4 0.189844 142.31 0.569844 140.22C0.949844 137.94 1.70984 136.04 2.27984 133.76C3.41984 129.01 3.79984 124.07 4.17984 119.13C4.36984 110.96 5.31984 102.79 7.59984 95.0001C9.87984 87.0201 12.9198 79.2301 14.0598 71.0601C14.6298 65.7401 14.4398 60.0401 13.6798 54.5301C12.7298 49.2101 11.2098 43.8901 9.87984 38.3801C8.35984 33.2501 6.83984 27.9301 6.07984 22.4201C5.69984 19.7601 5.50984 16.9101 5.88984 14.2501C6.07984 11.4001 6.83984 8.74013 8.35984 6.27013C8.92984 5.13013 9.87984 4.18013 11.0198 3.23013C12.1598 2.47013 13.2998 1.90012 14.8198 1.52013C16.9098 1.14013 19.3798 1.71013 21.2798 2.85014C23.1798 4.18013 24.5098 6.08013 25.4598 8.17013ZM109.82 21.4701C108.49 26.4101 106.78 30.9701 105.83 35.9101C104.69 40.6601 104.12 45.6001 104.12 50.7301C103.93 60.6101 106.02 70.3001 106.59 80.1801C106.97 89.1101 106.4 97.8501 106.78 106.59C107.16 115.33 109.06 123.88 110.39 132.43C110.96 136.8 110.96 141.17 109.44 145.16C108.68 147.25 107.54 149.15 106.02 150.48C104.31 152 102.41 152.95 100.32 153.14C98.0398 153.52 95.9498 153.14 93.8598 152.19C91.9598 151.24 90.4398 149.53 89.2998 147.82C88.1598 145.92 87.5898 143.83 87.3998 141.55C87.0198 139.46 87.2098 137.37 87.7798 135.09C89.1098 127.49 93.4798 120.65 96.5198 113.24C99.5598 106.02 101.46 98.2301 101.65 90.4401C101.84 82.4601 100.51 74.6701 98.7998 66.8801C96.8998 59.2801 94.8098 51.6801 93.2898 43.8901C91.3898 36.1001 89.4898 28.1201 88.7298 19.9501C88.1598 15.9601 88.3498 11.5901 90.0598 7.98013C90.8198 6.08013 92.1498 4.37013 93.6698 3.04013C95.3798 1.90012 97.4698 1.14013 99.5598 0.950126C101.65 0.950126 103.93 1.71013 105.83 3.04013C107.54 4.37013 108.87 6.27013 109.82 8.36013C110.58 10.4501 110.77 12.7301 110.77 15.0101C110.58 17.1001 110.2 19.3801 109.82 21.4701ZM169.367 2.47013C170.887 1.52013 172.977 1.14013 175.067 1.33013C176.967 1.52013 178.867 2.28013 180.767 3.04013C183.807 4.75013 186.657 6.84013 189.127 9.31013C192.927 13.3001 195.207 18.6201 195.967 24.1301C196.537 29.6401 195.587 35.1501 194.447 40.4701C193.307 45.7901 191.977 51.3001 191.787 56.8101C191.407 62.3201 192.547 67.8301 194.067 72.9601C194.827 76.0001 195.777 79.0401 196.537 82.0801C197.107 85.1201 197.487 88.1601 197.107 91.2001C196.917 94.2401 195.967 97.2801 195.017 100.32C194.447 101.65 194.067 103.17 193.687 104.69C193.497 106.21 193.497 107.92 193.877 109.25C194.067 110.2 194.257 110.96 194.827 111.53C195.397 112.29 195.967 112.86 196.917 113.05C197.867 113.62 199.007 113.62 200.147 113.24C201.097 113.05 202.047 112.48 202.997 111.53C203.757 110.77 204.327 109.82 204.707 108.68C205.657 106.59 205.657 104.31 205.467 102.03C205.277 97.4701 203.757 93.1001 202.997 88.7301C202.047 84.3601 201.667 79.8001 201.857 75.2401C201.857 70.6801 202.427 66.1201 202.807 61.5601C203.377 52.2501 202.997 42.5601 202.807 33.0601C202.807 28.3101 202.807 23.5601 203.947 18.8101C204.897 14.2501 206.987 9.69013 210.407 6.27013C212.117 4.56012 214.207 3.23013 216.487 2.28013C218.767 1.52013 221.237 1.14013 223.707 1.33013C227.887 1.90012 231.877 4.18013 234.917 7.41013C239.287 12.3501 241.187 19.0001 242.137 25.6501C242.897 32.1101 242.517 38.7601 241.947 45.2201C239.857 65.7401 236.057 86.2601 237.387 106.78C237.767 114.95 239.097 122.74 240.047 130.72C240.427 134.9 240.617 138.89 239.857 142.88C239.477 144.78 238.907 146.68 237.767 148.39C236.817 150.1 235.297 151.62 233.587 152.38C232.447 152.95 231.117 153.33 229.977 153.14C228.077 153.14 226.557 152.38 225.227 151.24C223.517 149.91 222.377 148.2 221.617 146.3C220.857 144.21 220.477 142.31 220.287 140.22C219.717 136.04 220.097 131.86 220.287 127.68C220.667 119.32 221.047 110.96 222.567 102.6C223.517 96.5201 225.037 90.6301 226.177 84.5501C227.317 78.4701 227.697 72.2001 227.507 65.9301C227.127 61.3701 226.557 56.6201 226.557 51.8701C226.557 47.1201 227.317 42.3701 228.647 37.6201C229.027 35.7201 229.597 33.6301 229.787 31.5401C229.977 29.4501 229.977 27.3601 229.407 25.4601C228.837 23.3701 227.507 21.6601 225.797 20.5201C224.087 19.3801 221.807 19.0001 219.907 19.3801C218.197 19.9501 216.677 20.9001 215.537 22.0401C214.207 23.5601 213.257 25.2701 212.687 27.1701C212.117 28.8801 211.927 30.7801 211.737 32.6801C211.737 36.4801 212.307 40.2801 213.257 44.0801C214.777 51.4901 216.677 58.9001 218.007 66.3101C219.147 74.4801 219.907 82.6501 218.767 90.6301C217.627 98.8001 214.587 106.4 211.547 113.81C208.887 119.7 206.797 125.59 206.417 131.86C206.227 135.09 206.417 138.13 206.417 141.36C206.417 142.88 206.417 144.4 206.227 145.92C205.847 147.63 205.467 149.15 204.707 150.29C204.137 151.24 203.377 151.81 202.617 152.38C201.857 152.95 200.907 153.14 199.957 153.14C198.817 153.33 197.677 152.95 196.727 152.19C195.777 151.62 195.017 150.67 194.637 149.53C193.877 148.2 193.497 146.49 193.497 144.97C193.307 143.26 193.497 141.55 193.497 140.03C193.877 136.8 194.067 133.57 193.877 130.34C193.497 123.69 191.027 117.61 188.937 111.34C186.277 104.31 184.947 96.7101 184.947 89.1101C184.757 81.5101 185.517 73.9101 185.707 66.1201C185.707 55.4801 185.137 44.8401 184.757 34.0101C184.567 31.9201 184.377 29.6401 183.997 27.5501C183.427 25.2701 182.667 23.1801 181.527 21.2801C180.577 20.3301 179.437 19.1901 178.297 18.6201C177.347 18.2401 176.397 18.2401 175.257 18.2401C174.307 18.2401 173.357 18.6201 172.597 19.0001C171.837 19.5701 171.077 20.3301 170.507 21.0901C170.127 22.0401 169.747 22.9901 169.557 23.9401C169.367 25.8401 169.937 27.7401 170.697 29.6401C171.457 31.3501 172.787 32.8701 173.927 34.3901C175.637 37.0501 177.537 39.7101 178.487 42.5601C179.627 45.6001 180.007 48.6401 179.627 51.8701C179.057 58.1401 175.827 63.6501 173.927 69.5401C172.597 73.3401 171.837 76.9501 171.647 80.9401C171.647 84.7401 172.217 88.5401 172.977 92.1501C174.687 99.5601 177.347 106.97 178.297 114.38C178.867 120.46 178.867 126.54 178.867 132.43C178.867 135.47 178.867 138.51 178.677 141.55C178.297 144.4 177.727 147.63 176.017 149.91C175.257 151.05 174.307 152 173.167 152.57C172.027 153.14 170.697 153.33 169.557 153.14C168.227 153.14 166.897 152.38 165.947 151.43C164.997 150.67 164.237 149.34 164.047 148.01C163.477 146.3 163.477 144.4 163.667 142.5C164.047 140.79 164.427 138.89 164.997 137.18C166.137 133.57 167.657 130.15 168.417 126.54C170.127 119.32 169.557 111.72 168.227 104.31C165.947 93.6701 163.287 82.8401 163.287 71.8201C163.097 60.8001 165.187 49.7801 166.137 38.7601C166.327 34.2001 166.327 29.4501 165.947 24.7001C165.567 19.9501 164.427 15.2001 164.997 10.4501C164.997 8.93012 165.377 7.41013 166.137 6.08013C166.897 4.56012 168.037 3.42013 169.367 2.47013ZM325.808 7.60013C324.858 6.65013 323.718 5.70013 322.388 4.94013C321.058 4.37013 319.538 4.18013 318.208 4.18013C316.498 4.37013 314.978 5.13013 313.838 6.08013C312.508 7.03013 311.558 8.17013 310.988 9.50013C309.278 12.7301 308.898 16.3401 308.898 19.9501C308.898 23.5601 309.278 26.9801 309.468 30.5901C310.038 37.6201 310.418 44.6501 310.988 51.6801C311.368 60.0401 312.128 68.2101 312.508 76.5701C312.888 84.7401 312.508 93.1001 310.988 101.08C309.468 107.92 307.378 114.57 306.048 121.41C305.288 124.83 304.908 128.44 305.098 131.86C305.478 135.28 306.618 138.7 308.898 141.36C310.608 143.83 313.458 145.35 316.498 145.54C318.208 145.73 320.108 145.54 321.628 144.78C323.338 144.02 324.668 142.88 325.998 141.36C328.278 138.7 329.608 135.09 330.178 131.48C330.938 127.87 330.748 124.26 330.558 120.46C329.798 113.24 328.278 106.02 326.948 98.8001C323.528 81.3201 322.008 63.0801 325.048 45.2201C325.998 38.9501 327.518 32.6801 328.468 26.2201C329.038 23.1801 329.228 19.9501 329.038 16.7201C328.658 13.4901 327.708 10.2601 325.808 7.60013ZM319.348 0.000126481C322.008 0.190124 324.858 1.14013 327.138 2.66013C329.608 4.18013 331.508 6.46013 333.028 8.74013C336.638 15.0101 337.208 22.4201 337.208 29.6401C337.208 36.8601 336.638 44.0801 336.828 51.1101C336.828 60.0401 337.968 68.7801 339.678 77.3301C341.198 85.8801 343.098 94.6201 344.048 103.17C345.188 115.9 343.858 129.2 337.588 140.03C335.308 144.02 332.268 147.44 328.658 149.91C325.238 152.57 320.868 154.28 316.498 154.28C313.078 154.47 309.848 153.71 306.808 152.38C303.768 150.86 301.298 148.58 299.398 145.92C295.788 141.17 294.268 135.09 294.078 129.2C293.888 123.12 294.838 117.23 295.788 111.15C296.928 101.46 297.688 91.7701 297.118 82.0801C296.548 72.2001 295.218 62.5101 295.028 52.6301C294.648 45.0301 295.218 37.0501 296.548 29.4501C297.878 21.8501 300.158 14.0601 304.908 7.79013C306.618 5.70013 308.708 3.61013 311.178 2.28013C313.648 0.760128 316.498 0.000126481 319.348 0.000126481ZM408.111 3.80013C411.341 6.46013 413.431 10.2601 415.711 13.6801C417.991 17.2901 420.081 20.7101 422.361 24.3201C424.641 27.9301 426.731 31.5401 428.061 35.5301C429.581 39.3301 430.151 43.7001 429.961 47.6901C429.581 53.2001 427.681 58.5201 426.731 63.8401C425.781 68.0201 425.591 72.3901 425.781 76.5701C426.161 80.7501 426.921 84.9301 427.681 89.1101C428.631 93.2901 429.201 97.4701 429.391 101.65C429.581 105.83 429.201 110.01 428.631 114.19C428.251 116.09 427.871 117.99 427.681 119.89C427.491 121.79 427.491 123.69 428.251 125.4C428.441 126.16 428.821 126.73 429.201 127.3C429.771 127.87 430.341 128.25 431.101 128.44C431.671 128.82 432.431 128.82 433.191 128.63C433.951 128.44 434.711 128.06 435.281 127.49C436.231 126.73 436.801 125.4 437.181 124.26C437.561 122.93 437.561 121.6 437.561 120.27C437.561 117.61 436.991 114.95 436.421 112.48C435.471 107.16 435.281 101.84 435.471 96.5201C435.661 86.0701 435.471 75.6201 435.471 64.9801C435.281 52.0601 435.661 39.1401 434.521 26.2201C434.141 22.4201 433.571 18.4301 433.381 14.6301C433.381 12.5401 433.381 10.6401 433.761 8.55013C434.141 6.65013 434.901 4.75013 436.231 3.23013C436.801 2.66013 437.561 1.90012 438.511 1.52013C439.461 1.14013 440.411 1.14013 441.551 1.14013C442.501 1.33013 443.641 1.90012 444.401 2.85014C445.161 3.61013 445.921 4.56012 446.301 5.51013C447.251 8.55013 447.061 11.5901 446.681 14.6301C446.491 17.6701 445.921 20.7101 445.731 23.7501C444.401 36.4801 445.921 49.4001 447.441 61.9401C448.201 69.5401 448.771 77.1401 448.201 84.5501C447.631 92.1501 446.111 99.5601 444.781 106.78C444.021 110.58 443.451 114.19 443.451 117.8C443.451 121.6 443.831 125.21 444.971 128.82C445.921 132.24 447.441 135.66 448.771 139.08C449.341 140.79 449.911 142.5 450.101 144.4C450.291 146.3 450.291 148.2 449.531 149.72C448.771 151.05 447.821 152.19 446.491 152.76C445.731 153.14 444.781 153.33 444.021 153.33C443.261 153.33 442.501 153.14 441.741 152.76C439.651 152.19 437.941 150.67 436.421 149.15C435.091 147.63 433.761 145.92 432.431 144.4C429.771 140.98 426.921 137.94 424.261 134.52C421.221 131.1 418.371 127.3 416.091 123.31C414.001 119.13 412.481 114.76 411.721 110.01C410.201 100.89 412.291 91.5801 414.761 82.4601C416.471 75.8101 418.371 68.9701 418.561 61.9401C418.751 54.9101 416.851 48.0701 414.951 41.2301C414.001 38.1901 413.241 35.1501 412.861 31.9201C412.671 30.4001 412.481 28.6901 412.291 27.1701C412.101 25.6501 411.721 23.9401 411.151 22.4201C410.771 21.8501 410.201 21.0901 409.631 20.5201C408.871 20.1401 408.111 19.7601 407.351 19.5701C406.591 19.5701 405.831 19.7601 405.261 20.1401C404.501 20.5201 404.121 20.9001 403.741 21.6601C402.981 22.8001 402.791 24.3201 403.171 25.6501C403.551 28.6901 405.261 31.5401 406.211 34.3901C407.161 37.2401 407.731 40.2801 407.921 43.3201C408.111 53.7701 405.261 63.8401 404.501 74.1001C403.741 84.3601 404.501 94.6201 406.211 104.69C407.351 112.86 409.441 120.84 410.771 128.82C411.531 132.81 412.101 136.99 411.721 140.98C411.531 143.07 411.151 145.16 410.201 146.87C409.441 148.77 408.111 150.48 406.591 151.62C404.691 152.95 402.601 153.52 400.511 153.14C398.991 152.95 397.471 152.19 396.331 151.24C395.381 150.1 394.431 148.77 394.051 147.25C392.721 144.02 392.721 140.41 393.101 136.99C393.291 133.57 393.861 130.15 394.051 126.54C394.621 119.7 394.431 112.67 394.431 105.64C394.241 94.8101 395.381 83.7901 396.901 72.7701C398.421 61.9401 399.371 50.9201 397.471 39.9001C396.331 34.0101 394.431 28.1201 393.101 22.2301C392.341 19.3801 391.771 16.3401 391.771 13.3001C391.961 10.2601 392.721 7.03013 394.621 4.56012C395.571 3.23013 397.091 2.09013 398.801 1.52013C400.321 1.14013 402.031 1.14013 403.741 1.52013C405.261 1.90012 406.781 2.85014 408.111 3.80013ZM518.802 21.4701C517.472 26.4101 515.762 30.9701 514.812 35.9101C513.672 40.6601 513.102 45.6001 513.102 50.7301C512.912 60.6101 515.002 70.3001 515.572 80.1801C515.952 89.1101 515.382 97.8501 515.762 106.59C516.142 115.33 518.042 123.88 519.372 132.43C519.942 136.8 519.942 141.17 518.422 145.16C517.662 147.25 516.522 149.15 515.002 150.48C513.292 152 511.392 152.95 509.302 153.14C507.022 153.52 504.932 153.14 502.842 152.19C500.942 151.24 499.422 149.53 498.282 147.82C497.142 145.92 496.572 143.83 496.382 141.55C496.002 139.46 496.192 137.37 496.762 135.09C498.092 127.49 502.462 120.65 505.502 113.24C508.542 106.02 510.442 98.2301 510.632 90.4401C510.822 82.4601 509.492 74.6701 507.782 66.8801C505.882 59.2801 503.792 51.6801 502.272 43.8901C500.372 36.1001 498.472 28.1201 497.712 19.9501C497.142 15.9601 497.332 11.5901 499.042 7.98013C499.802 6.08013 501.132 4.37013 502.652 3.04013C504.362 1.90012 506.452 1.14013 508.542 0.950126C510.632 0.950126 512.912 1.71013 514.812 3.04013C516.522 4.37013 517.852 6.27013 518.802 8.36013C519.562 10.4501 519.752 12.7301 519.752 15.0101C519.562 17.1001 519.182 19.3801 518.802 21.4701ZM579.109 1.14013C580.249 1.14013 581.579 1.33013 582.719 1.90012C584.049 2.47013 584.999 3.23013 585.759 4.37013C587.279 6.46013 587.849 9.12013 587.849 11.5901C587.659 14.8201 586.899 18.0501 586.329 21.0901C585.569 24.3201 584.999 27.3601 584.809 30.5901C584.429 36.8601 585.569 43.3201 587.279 49.4001C589.559 58.9001 592.599 68.2101 593.549 77.7101C594.689 87.4001 594.119 97.2801 591.269 106.4C590.129 110.01 588.609 113.43 586.899 116.66C585.189 119.89 583.099 122.93 581.389 125.97C580.059 128.44 578.919 130.91 578.919 133.57C578.729 134.9 578.919 136.23 579.489 137.56C579.869 138.7 580.629 139.84 581.769 140.6C582.529 141.55 583.669 142.12 584.809 142.31C585.949 142.69 587.279 142.69 588.419 142.5C590.699 142.12 592.789 140.79 594.689 139.08C596.779 137.18 598.299 134.71 599.629 132.05C600.959 129.39 602.099 126.54 603.049 123.69C607.609 108.87 607.989 92.9101 605.709 77.5201C604.189 68.2101 601.909 59.0901 600.579 49.7801C599.439 40.4701 600.009 30.9701 602.099 21.6601C602.669 18.8101 603.429 15.9601 604.189 13.1101C604.949 10.2601 605.899 7.41013 607.609 4.75013C608.369 3.42013 609.699 2.28013 611.219 1.52013C611.979 1.33013 612.929 1.14013 613.689 1.14013C614.449 1.14013 615.399 1.33013 616.159 1.71013C617.299 2.47013 618.249 3.61013 618.629 4.94013C619.199 6.27013 619.199 7.60013 619.199 8.93012C618.819 11.9701 618.059 14.6301 617.489 17.4801C616.919 20.3301 616.729 23.1801 616.539 26.0301C615.969 34.2001 615.969 42.1801 615.779 50.1601C615.589 58.1401 615.399 66.3101 616.349 74.1001C617.109 83.7901 619.199 93.2901 619.579 102.79C619.769 107.73 619.579 112.48 619.009 117.23C618.249 121.98 617.299 126.73 617.299 131.48C617.109 134.71 617.489 137.94 618.439 140.98C618.819 142.5 619.579 144.02 619.959 145.54C620.529 147.06 620.909 148.58 620.719 150.1C620.529 151.05 620.149 152 619.389 152.57C619.009 152.95 618.629 153.14 618.249 153.14C617.679 153.33 617.299 153.33 616.919 153.14C616.159 153.14 615.589 152.57 615.209 152.19C614.829 151.62 614.639 150.86 614.639 150.1C614.449 149.53 614.449 148.96 614.449 148.39C614.449 147.82 614.449 147.25 614.449 146.68C614.069 146.11 613.689 145.35 613.119 144.97C612.549 144.59 611.599 144.21 611.029 144.21C609.699 144.4 608.369 144.97 607.419 145.54C605.899 146.68 604.759 147.82 603.429 148.96C602.099 150.1 600.769 151.24 599.249 152C596.209 153.52 592.599 153.9 589.369 153.14C585.759 152.57 582.339 151.05 579.489 148.96C576.639 146.87 574.169 144.02 572.649 140.79C569.799 135.66 569.229 129.39 569.989 123.5C570.939 117.42 572.839 111.91 574.739 106.02C577.969 95.0001 578.919 83.2201 577.399 71.6301C575.689 60.2301 572.839 48.8301 571.699 37.2401C571.129 32.1101 570.749 26.9801 570.369 21.6601C570.369 19.1901 570.179 16.5301 570.559 13.8701C570.749 11.4001 571.129 8.74013 572.459 6.27013C573.029 5.13013 573.979 3.80013 575.119 3.04013C576.259 2.09013 577.589 1.33013 579.109 1.14013ZM675.539 2.47013C677.059 1.52013 679.149 1.14013 681.239 1.33013C683.139 1.52013 685.039 2.28013 686.939 3.04013C689.979 4.75013 692.829 6.84013 695.299 9.31013C699.099 13.3001 701.379 18.6201 702.139 24.1301C702.709 29.6401 701.759 35.1501 700.619 40.4701C699.479 45.7901 698.149 51.3001 697.959 56.8101C697.579 62.3201 698.719 67.8301 700.239 72.9601C700.999 76.0001 701.949 79.0401 702.709 82.0801C703.279 85.1201 703.659 88.1601 703.279 91.2001C703.089 94.2401 702.139 97.2801 701.189 100.32C700.619 101.65 700.239 103.17 699.859 104.69C699.669 106.21 699.669 107.92 700.049 109.25C700.239 110.2 700.429 110.96 700.999 111.53C701.569 112.29 702.139 112.86 703.089 113.05C704.039 113.62 705.179 113.62 706.319 113.24C707.269 113.05 708.219 112.48 709.169 111.53C709.929 110.77 710.499 109.82 710.879 108.68C711.829 106.59 711.829 104.31 711.639 102.03C711.449 97.4701 709.929 93.1001 709.169 88.7301C708.219 84.3601 707.839 79.8001 708.029 75.2401C708.029 70.6801 708.599 66.1201 708.979 61.5601C709.549 52.2501 709.169 42.5601 708.979 33.0601C708.979 28.3101 708.979 23.5601 710.119 18.8101C711.069 14.2501 713.159 9.69013 716.579 6.27013C718.289 4.56012 720.379 3.23013 722.659 2.28013C724.939 1.52013 727.409 1.14013 729.879 1.33013C734.059 1.90012 738.049 4.18013 741.089 7.41013C745.459 12.3501 747.359 19.0001 748.309 25.6501C749.069 32.1101 748.689 38.7601 748.119 45.2201C746.029 65.7401 742.229 86.2601 743.559 106.78C743.939 114.95 745.269 122.74 746.219 130.72C746.599 134.9 746.789 138.89 746.029 142.88C745.649 144.78 745.079 146.68 743.939 148.39C742.989 150.1 741.469 151.62 739.759 152.38C738.619 152.95 737.289 153.33 736.149 153.14C734.249 153.14 732.729 152.38 731.399 151.24C729.689 149.91 728.549 148.2 727.789 146.3C727.029 144.21 726.649 142.31 726.459 140.22C725.889 136.04 726.269 131.86 726.459 127.68C726.839 119.32 727.219 110.96 728.739 102.6C729.689 96.5201 731.209 90.6301 732.349 84.5501C733.489 78.4701 733.869 72.2001 733.679 65.9301C733.299 61.3701 732.729 56.6201 732.729 51.8701C732.729 47.1201 733.489 42.3701 734.819 37.6201C735.199 35.7201 735.769 33.6301 735.959 31.5401C736.149 29.4501 736.149 27.3601 735.579 25.4601C735.009 23.3701 733.679 21.6601 731.969 20.5201C730.259 19.3801 727.979 19.0001 726.079 19.3801C724.369 19.9501 722.849 20.9001 721.709 22.0401C720.379 23.5601 719.429 25.2701 718.859 27.1701C718.289 28.8801 718.099 30.7801 717.909 32.6801C717.909 36.4801 718.479 40.2801 719.429 44.0801C720.949 51.4901 722.849 58.9001 724.179 66.3101C725.319 74.4801 726.079 82.6501 724.939 90.6301C723.799 98.8001 720.759 106.4 717.719 113.81C715.059 119.7 712.969 125.59 712.589 131.86C712.399 135.09 712.589 138.13 712.589 141.36C712.589 142.88 712.589 144.4 712.399 145.92C712.019 147.63 711.639 149.15 710.879 150.29C710.309 151.24 709.549 151.81 708.789 152.38C708.029 152.95 707.079 153.14 706.129 153.14C704.989 153.33 703.849 152.95 702.899 152.19C701.949 151.62 701.189 150.67 700.809 149.53C700.049 148.2 699.669 146.49 699.669 144.97C699.479 143.26 699.669 141.55 699.669 140.03C700.049 136.8 700.239 133.57 700.049 130.34C699.669 123.69 697.199 117.61 695.109 111.34C692.449 104.31 691.119 96.7101 691.119 89.1101C690.929 81.5101 691.689 73.9101 691.879 66.1201C691.879 55.4801 691.309 44.8401 690.929 34.0101C690.739 31.9201 690.549 29.6401 690.169 27.5501C689.599 25.2701 688.839 23.1801 687.699 21.2801C686.749 20.3301 685.609 19.1901 684.469 18.6201C683.519 18.2401 682.569 18.2401 681.429 18.2401C680.479 18.2401 679.529 18.6201 678.769 19.0001C678.009 19.5701 677.249 20.3301 676.679 21.0901C676.299 22.0401 675.919 22.9901 675.729 23.9401C675.539 25.8401 676.109 27.7401 676.869 29.6401C677.629 31.3501 678.959 32.8701 680.099 34.3901C681.809 37.0501 683.709 39.7101 684.659 42.5601C685.799 45.6001 686.179 48.6401 685.799 51.8701C685.229 58.1401 681.999 63.6501 680.099 69.5401C678.769 73.3401 678.009 76.9501 677.819 80.9401C677.819 84.7401 678.389 88.5401 679.149 92.1501C680.859 99.5601 683.519 106.97 684.469 114.38C685.039 120.46 685.039 126.54 685.039 132.43C685.039 135.47 685.039 138.51 684.849 141.55C684.469 144.4 683.899 147.63 682.189 149.91C681.429 151.05 680.479 152 679.339 152.57C678.199 153.14 676.869 153.33 675.729 153.14C674.399 153.14 673.069 152.38 672.119 151.43C671.169 150.67 670.409 149.34 670.219 148.01C669.649 146.3 669.649 144.4 669.839 142.5C670.219 140.79 670.599 138.89 671.169 137.18C672.309 133.57 673.829 130.15 674.589 126.54C676.299 119.32 675.729 111.72 674.399 104.31C672.119 93.6701 669.459 82.8401 669.459 71.8201C669.269 60.8001 671.359 49.7801 672.309 38.7601C672.499 34.2001 672.499 29.4501 672.119 24.7001C671.739 19.9501 670.599 15.2001 671.169 10.4501C671.169 8.93012 671.549 7.41013 672.309 6.08013C673.069 4.56012 674.209 3.42013 675.539 2.47013Z" fill="#BCD747"/>
</svg>
